<svg xmlns="http://www.w3.org/2000/svg" viewBox="0 0 512 512"><defs><radialGradient id="bg" cx="50%" cy="42%" r="70%"><stop offset="0" stop-color="#3a2a18"/><stop offset="1" stop-color="#120c07"/></radialGradient><linearGradient id="gold" x1="0" y1="0" x2="0" y2="1"><stop offset="0" stop-color="#ffe9a3"/><stop offset=".45" stop-color="#e3b54a"/><stop offset="1" stop-color="#8a5a16"/></linearGradient><linearGradient id="quest" x1="0" y1="0" x2="0" y2="1"><stop offset="0" stop-color="#fff6a8"/><stop offset=".5" stop-color="#ffd21f"/><stop offset="1" stop-color="#d98a00"/></linearGradient><filter id="glow" x="-50%" y="-50%" width="200%" height="200%"><feGaussianBlur stdDeviation="10" result="b"/><feMerge><feMergeNode in="b"/><feMergeNode in="SourceGraphic"/></feMerge></filter></defs><rect x="16" y="16" width="480" height="480" rx="64" fill="url(#bg)" stroke="url(#gold)" stroke-width="14"/><rect x="34" y="34" width="444" height="444" rx="50" fill="none" stroke="#e3b54a" stroke-opacity=".35" stroke-width="3"/>
<path d="M120 110 h272 q40 0 40 40 v170 q0 40 -40 40 h-150 l-74 64 l16 -64 h-64 q-40 0 -40 -40 v-170 q0 -40 40 -40 z" fill="#1e140b" stroke="url(#gold)" stroke-width="14" stroke-linejoin="round"/>
<g filter="url(#glow)"><path d="M238 150 h36 l-8 112 h-20 z" fill="url(#quest)" stroke="#3b2200" stroke-width="8" stroke-linejoin="round"/><circle cx="256" cy="300" r="20" fill="url(#quest)" stroke="#3b2200" stroke-width="8"/></g>
<g fill="none" stroke="url(#gold)" stroke-linecap="round" stroke-width="12"><path d="M186 180 q-26 50 0 100"/><path d="M326 180 q26 50 0 100"/><path d="M158 160 q-40 70 0 140" stroke-opacity=".6"/><path d="M354 160 q40 70 0 140" stroke-opacity=".6"/></g>
</svg>
